# xmcd CD database file
#
# Track frame offsets:
#	150
#	24510
#	46252
#
# Disc length: 731 seconds
#
# Revision: 0
# Processed by: cddbd v1.5.1PL0 Copyright (c) Steve Scherf et al.
# Submitted via: CDex 1.51
#
DISCID=1a02d903
DTITLE=ひふみかおり - 喜びの詩
DYEAR=2000
DGENRE=JPop
TTITLE0=喜びの詩
TTITLE1=sweet days
TTITLE2=ちょうちょ
EXTD=YEAR: 2000/03/02
EXTT0=
EXTT1=
EXTT2=
PLAYORDER=
